<svg xmlns="http://www.w3.org/2000/svg" viewBox="0 0 128 128" fill="none">
  <defs>
    <linearGradient id="bg" x1="18" y1="10" x2="112" y2="118" gradientUnits="userSpaceOnUse">
      <stop stop-color="#A855F7" />
      <stop offset="0.55" stop-color="#7C3AED" />
      <stop offset="1" stop-color="#5B21B6" />
    </linearGradient>
    <linearGradient id="shine" x1="34" y1="18" x2="99" y2="106" gradientUnits="userSpaceOnUse">
      <stop stop-color="#FFFFFF" stop-opacity=".34" />
      <stop offset="1" stop-color="#FFFFFF" stop-opacity="0" />
    </linearGradient>
  </defs>

  <rect x="8" y="8" width="112" height="112" rx="28" fill="url(#bg)" />
  <rect x="10.5" y="10.5" width="107" height="107" rx="25.5" stroke="#FFFFFF" stroke-opacity=".18" stroke-width="1" />
  <path
    d="M34 95 57.7 33.7c1.9-4.8 10.7-4.8 12.6 0L94 95H80.4l-4.8-13.3H52.4L47.6 95H34Z"
    fill="#FFFFFF"
  />
  <path
    d="M57.6 69.6h12.8c2.6 0 4.8.8 6.7 2.4 1.8 1.5 2.7 3.1 2.7 4.8 0 1.7-.9 3.2-2.7 4.6-1.9 1.5-4.1 2.2-6.7 2.2H57.6c5.5-4.4 8.3-9 8.3-13.8 0-.1 0-.2-.1-.2h-8.2Z"
    fill="#E9D5FF"
  />
  <path
    d="M33 37c10.7-9.7 24.3-14.9 39.4-14.9 7.7 0 14.8 1.2 21.5 3.5"
    stroke="url(#shine)"
    stroke-width="5"
    stroke-linecap="round"
  />
</svg>
